<svg xmlns="http://www.w3.org/2000/svg" width="17" height="16" viewBox="0 0 17 16">
    <path fill="#2B2E30" fill-rule="nonzero" d="M16.744 9.81V16h-3.589v-5.776c0-1.45-.519-2.44-1.818-2.44-.992 0-1.582.666-1.841 1.312-.095.23-.12.552-.12.875V16h-3.59s.05-9.782 0-10.796h3.59v1.53l-.023.035h.024v-.035c.476-.734 1.328-1.783 3.235-1.783 2.362 0 4.132 1.543 4.132 4.859zM2.031 0C.803 0 0 .806 0 1.865 0 2.9.78 3.73 1.984 3.73h.024c1.252 0 2.03-.83 2.03-1.866C4.015.805 3.26 0 2.031 0zM.213 16h3.589V5.204H.213V16z"/>
</svg>
